<mxfile host="Electron" modified="2023-04-25T22:38:12.032Z" agent="Mozilla/5.0 (X11; Linux x86_64) AppleWebKit/537.36 (KHTML, like Gecko) draw.io/21.1.2 Chrome/106.0.5249.199 Electron/21.4.3 Safari/537.36" etag="UCTh7J3rB7Hl9SS5-k0R" version="21.1.2" type="device" pages="4">
  <diagram name="connect" id="DScn_FhWweHMU5SMJtoi">
    <mxGraphModel dx="2035" dy="609" grid="1" gridSize="10" guides="1" tooltips="1" connect="1" arrows="1" fold="1" page="1" pageScale="1" pageWidth="850" pageHeight="1100" math="0" shadow="0">
      <root>
        <mxCell id="0" />
        <mxCell id="1" parent="0" />
        <mxCell id="taw8-x6rerH2aYyrBphN-5" value="&lt;font face=&quot;Courier New&quot;&gt;/node1&lt;/font&gt;" style="swimlane;whiteSpace=wrap;html=1;fillColor=#ffe6cc;strokeColor=#d79b00;startSize=23;" vertex="1" parent="1">
          <mxGeometry x="-790" y="60" width="130" height="110" as="geometry" />
        </mxCell>
        <mxCell id="taw8-x6rerH2aYyrBphN-10" value="&lt;font style=&quot;font-size: 11px;&quot; face=&quot;Courier New&quot;&gt;/node1/node2&lt;/font&gt;" style="rounded=1;whiteSpace=wrap;html=1;fillColor=#dae8fc;strokeColor=#6c8ebf;verticalAlign=top;" vertex="1" parent="taw8-x6rerH2aYyrBphN-5">
          <mxGeometry x="21.25" y="40" width="87.5" height="60" as="geometry" />
        </mxCell>
        <mxCell id="taw8-x6rerH2aYyrBphN-11" value="o1" style="rounded=0;whiteSpace=wrap;html=1;fontSize=10;fontFamily=Courier New;fillColor=#e1d5e7;strokeColor=#9673a6;" vertex="1" parent="taw8-x6rerH2aYyrBphN-5">
          <mxGeometry x="88.75" y="70" width="20" height="20" as="geometry" />
        </mxCell>
        <mxCell id="taw8-x6rerH2aYyrBphN-12" value="&lt;font face=&quot;Courier New&quot;&gt;/node3&lt;/font&gt;" style="swimlane;whiteSpace=wrap;html=1;fillColor=#ffe6cc;strokeColor=#d79b00;startSize=23;" vertex="1" parent="1">
          <mxGeometry x="-580" y="60" width="130" height="110" as="geometry" />
        </mxCell>
        <mxCell id="taw8-x6rerH2aYyrBphN-13" value="&lt;font style=&quot;font-size: 11px;&quot; face=&quot;Courier New&quot;&gt;/node3/node4&lt;/font&gt;" style="rounded=1;whiteSpace=wrap;html=1;fillColor=#dae8fc;strokeColor=#6c8ebf;verticalAlign=top;" vertex="1" parent="taw8-x6rerH2aYyrBphN-12">
          <mxGeometry x="21.25" y="40" width="87.5" height="60" as="geometry" />
        </mxCell>
        <mxCell id="taw8-x6rerH2aYyrBphN-14" value="i1" style="rounded=0;whiteSpace=wrap;html=1;fontSize=10;fontFamily=Courier New;fillColor=#e1d5e7;strokeColor=#9673a6;" vertex="1" parent="taw8-x6rerH2aYyrBphN-12">
          <mxGeometry x="21.25" y="70" width="20" height="20" as="geometry" />
        </mxCell>
        <mxCell id="taw8-x6rerH2aYyrBphN-15" style="edgeStyle=orthogonalEdgeStyle;rounded=0;orthogonalLoop=1;jettySize=auto;html=1;exitX=1;exitY=0.5;exitDx=0;exitDy=0;fillColor=#f8cecc;strokeColor=#b85450;dashed=1;dashPattern=12 12;" edge="1" parent="1" source="taw8-x6rerH2aYyrBphN-11" target="taw8-x6rerH2aYyrBphN-14">
          <mxGeometry relative="1" as="geometry" />
        </mxCell>
        <mxCell id="taw8-x6rerH2aYyrBphN-16" value="&lt;font style=&quot;font-size: 9px;&quot; face=&quot;Courier New&quot;&gt;recursive=True&lt;/font&gt;" style="edgeLabel;html=1;align=center;verticalAlign=middle;resizable=0;points=[];" vertex="1" connectable="0" parent="taw8-x6rerH2aYyrBphN-15">
          <mxGeometry x="0.1096" y="1" relative="1" as="geometry">
            <mxPoint x="-7" y="11" as="offset" />
          </mxGeometry>
        </mxCell>
        <mxCell id="taw8-x6rerH2aYyrBphN-17" value="" style="shape=flexArrow;endArrow=classic;html=1;rounded=0;endWidth=134.28571428571428;endSize=4.331428571428572;width=116;strokeWidth=1;strokeColor=#999999;" edge="1" parent="1">
          <mxGeometry width="50" height="50" relative="1" as="geometry">
            <mxPoint x="-620" y="180" as="sourcePoint" />
            <mxPoint x="-620" y="210" as="targetPoint" />
          </mxGeometry>
        </mxCell>
        <mxCell id="taw8-x6rerH2aYyrBphN-18" value="&lt;font face=&quot;Courier New&quot;&gt;/node1&lt;/font&gt;" style="swimlane;whiteSpace=wrap;html=1;fillColor=#ffe6cc;strokeColor=#d79b00;startSize=23;" vertex="1" parent="1">
          <mxGeometry x="-790" y="230" width="150" height="110" as="geometry" />
        </mxCell>
        <mxCell id="taw8-x6rerH2aYyrBphN-19" value="&lt;font style=&quot;font-size: 11px;&quot; face=&quot;Courier New&quot;&gt;/node1/node2&lt;/font&gt;" style="rounded=1;whiteSpace=wrap;html=1;fillColor=#dae8fc;strokeColor=#6c8ebf;verticalAlign=top;" vertex="1" parent="taw8-x6rerH2aYyrBphN-18">
          <mxGeometry x="21.25" y="40" width="87.5" height="60" as="geometry" />
        </mxCell>
        <mxCell id="taw8-x6rerH2aYyrBphN-20" value="o1" style="rounded=0;whiteSpace=wrap;html=1;fontSize=10;fontFamily=Courier New;fillColor=#e1d5e7;strokeColor=#9673a6;" vertex="1" parent="taw8-x6rerH2aYyrBphN-18">
          <mxGeometry x="88.75" y="70" width="20" height="20" as="geometry" />
        </mxCell>
        <mxCell id="taw8-x6rerH2aYyrBphN-21" value="&lt;font face=&quot;Courier New&quot;&gt;/node3&lt;/font&gt;" style="swimlane;whiteSpace=wrap;html=1;fillColor=#ffe6cc;strokeColor=#d79b00;startSize=23;" vertex="1" parent="1">
          <mxGeometry x="-600" y="230" width="150" height="110" as="geometry" />
        </mxCell>
        <mxCell id="taw8-x6rerH2aYyrBphN-22" value="&lt;font style=&quot;font-size: 11px;&quot; face=&quot;Courier New&quot;&gt;/node3/node4&lt;/font&gt;" style="rounded=1;whiteSpace=wrap;html=1;fillColor=#dae8fc;strokeColor=#6c8ebf;verticalAlign=top;" vertex="1" parent="taw8-x6rerH2aYyrBphN-21">
          <mxGeometry x="41.25" y="40" width="87.5" height="60" as="geometry" />
        </mxCell>
        <mxCell id="taw8-x6rerH2aYyrBphN-23" value="i1" style="rounded=0;whiteSpace=wrap;html=1;fontSize=10;fontFamily=Courier New;fillColor=#e1d5e7;strokeColor=#9673a6;" vertex="1" parent="taw8-x6rerH2aYyrBphN-21">
          <mxGeometry x="41.25" y="70" width="20" height="20" as="geometry" />
        </mxCell>
        <mxCell id="taw8-x6rerH2aYyrBphN-24" style="edgeStyle=orthogonalEdgeStyle;rounded=0;orthogonalLoop=1;jettySize=auto;html=1;exitX=1;exitY=0.5;exitDx=0;exitDy=0;fillColor=#f8cecc;strokeColor=#000000;" edge="1" parent="1" source="taw8-x6rerH2aYyrBphN-36" target="taw8-x6rerH2aYyrBphN-23">
          <mxGeometry relative="1" as="geometry" />
        </mxCell>
        <mxCell id="taw8-x6rerH2aYyrBphN-35" value="" style="edgeStyle=orthogonalEdgeStyle;rounded=0;orthogonalLoop=1;jettySize=auto;html=1;exitX=1;exitY=0.5;exitDx=0;exitDy=0;fillColor=#f8cecc;strokeColor=#000000;" edge="1" parent="1" source="taw8-x6rerH2aYyrBphN-20" target="taw8-x6rerH2aYyrBphN-34">
          <mxGeometry relative="1" as="geometry">
            <mxPoint x="-681" y="310" as="sourcePoint" />
            <mxPoint x="-559" y="310" as="targetPoint" />
          </mxGeometry>
        </mxCell>
        <mxCell id="taw8-x6rerH2aYyrBphN-34" value="o1" style="rounded=0;whiteSpace=wrap;html=1;fontSize=10;fontFamily=Courier New;fillColor=#e1d5e7;strokeColor=#9673a6;" vertex="1" parent="1">
          <mxGeometry x="-660" y="300" width="20" height="20" as="geometry" />
        </mxCell>
        <mxCell id="taw8-x6rerH2aYyrBphN-37" value="" style="edgeStyle=orthogonalEdgeStyle;rounded=0;orthogonalLoop=1;jettySize=auto;html=1;exitX=1;exitY=0.5;exitDx=0;exitDy=0;fillColor=#f8cecc;strokeColor=#000000;" edge="1" parent="1" source="taw8-x6rerH2aYyrBphN-34" target="taw8-x6rerH2aYyrBphN-36">
          <mxGeometry relative="1" as="geometry">
            <mxPoint x="-640" y="310" as="sourcePoint" />
            <mxPoint x="-559" y="310" as="targetPoint" />
          </mxGeometry>
        </mxCell>
        <mxCell id="taw8-x6rerH2aYyrBphN-36" value="i1" style="rounded=0;whiteSpace=wrap;html=1;fontSize=10;fontFamily=Courier New;fillColor=#e1d5e7;strokeColor=#9673a6;" vertex="1" parent="1">
          <mxGeometry x="-600" y="300" width="20" height="20" as="geometry" />
        </mxCell>
      </root>
    </mxGraphModel>
  </diagram>
  <diagram id="QH8d6yF4eBgGCrR2AUbM" name="connected_ports">
    <mxGraphModel dx="1838" dy="508" grid="1" gridSize="10" guides="1" tooltips="1" connect="1" arrows="1" fold="1" page="1" pageScale="1" pageWidth="850" pageHeight="1100" math="0" shadow="0">
      <root>
        <mxCell id="0" />
        <mxCell id="1" parent="0" />
        <mxCell id="plf-JN8BxmBgv0VeOe3S-1" value="&lt;font face=&quot;Courier New&quot;&gt;/n1&lt;/font&gt;" style="swimlane;whiteSpace=wrap;html=1;fillColor=#ffe6cc;strokeColor=#d79b00;startSize=23;" vertex="1" parent="1">
          <mxGeometry x="-840" y="10" width="150" height="110" as="geometry" />
        </mxCell>
        <mxCell id="plf-JN8BxmBgv0VeOe3S-2" value="&lt;font style=&quot;font-size: 11px;&quot; face=&quot;Courier New&quot;&gt;/n1/n2&lt;/font&gt;" style="rounded=1;whiteSpace=wrap;html=1;fillColor=#dae8fc;strokeColor=#6c8ebf;verticalAlign=top;" vertex="1" parent="plf-JN8BxmBgv0VeOe3S-1">
          <mxGeometry x="21.25" y="40" width="87.5" height="60" as="geometry" />
        </mxCell>
        <mxCell id="plf-JN8BxmBgv0VeOe3S-3" value="o1" style="rounded=0;whiteSpace=wrap;html=1;fontSize=10;fontFamily=Courier New;fillColor=#e1d5e7;strokeColor=#9673a6;" vertex="1" parent="plf-JN8BxmBgv0VeOe3S-1">
          <mxGeometry x="88.75" y="70" width="20" height="20" as="geometry" />
        </mxCell>
        <mxCell id="plf-JN8BxmBgv0VeOe3S-4" value="&lt;font face=&quot;Courier New&quot;&gt;/n3&lt;/font&gt;" style="swimlane;whiteSpace=wrap;html=1;fillColor=#ffe6cc;strokeColor=#d79b00;startSize=23;" vertex="1" parent="1">
          <mxGeometry x="-650" y="10" width="150" height="110" as="geometry" />
        </mxCell>
        <mxCell id="plf-JN8BxmBgv0VeOe3S-5" value="&lt;font style=&quot;font-size: 11px;&quot; face=&quot;Courier New&quot;&gt;/n3/n4&lt;/font&gt;" style="rounded=1;whiteSpace=wrap;html=1;fillColor=#dae8fc;strokeColor=#6c8ebf;verticalAlign=top;" vertex="1" parent="plf-JN8BxmBgv0VeOe3S-4">
          <mxGeometry x="41.25" y="40" width="87.5" height="60" as="geometry" />
        </mxCell>
        <mxCell id="plf-JN8BxmBgv0VeOe3S-6" value="i1" style="rounded=0;whiteSpace=wrap;html=1;fontSize=10;fontFamily=Courier New;fillColor=#e1d5e7;strokeColor=#9673a6;" vertex="1" parent="plf-JN8BxmBgv0VeOe3S-4">
          <mxGeometry x="41.25" y="70" width="20" height="20" as="geometry" />
        </mxCell>
        <mxCell id="plf-JN8BxmBgv0VeOe3S-7" style="edgeStyle=orthogonalEdgeStyle;rounded=0;orthogonalLoop=1;jettySize=auto;html=1;exitX=1;exitY=0.5;exitDx=0;exitDy=0;fillColor=#f8cecc;strokeColor=#000000;" edge="1" parent="1" source="plf-JN8BxmBgv0VeOe3S-11" target="plf-JN8BxmBgv0VeOe3S-6">
          <mxGeometry relative="1" as="geometry" />
        </mxCell>
        <mxCell id="plf-JN8BxmBgv0VeOe3S-8" value="" style="edgeStyle=orthogonalEdgeStyle;rounded=0;orthogonalLoop=1;jettySize=auto;html=1;exitX=1;exitY=0.5;exitDx=0;exitDy=0;fillColor=#f8cecc;strokeColor=#000000;" edge="1" parent="1" source="plf-JN8BxmBgv0VeOe3S-3" target="plf-JN8BxmBgv0VeOe3S-9">
          <mxGeometry relative="1" as="geometry">
            <mxPoint x="-731" y="90" as="sourcePoint" />
            <mxPoint x="-609" y="90" as="targetPoint" />
          </mxGeometry>
        </mxCell>
        <mxCell id="plf-JN8BxmBgv0VeOe3S-9" value="o1" style="rounded=0;whiteSpace=wrap;html=1;fontSize=10;fontFamily=Courier New;fillColor=#e1d5e7;strokeColor=#9673a6;" vertex="1" parent="1">
          <mxGeometry x="-710" y="80" width="20" height="20" as="geometry" />
        </mxCell>
        <mxCell id="plf-JN8BxmBgv0VeOe3S-10" value="" style="edgeStyle=orthogonalEdgeStyle;rounded=0;orthogonalLoop=1;jettySize=auto;html=1;exitX=1;exitY=0.5;exitDx=0;exitDy=0;fillColor=#f8cecc;strokeColor=#000000;" edge="1" parent="1" source="plf-JN8BxmBgv0VeOe3S-9" target="plf-JN8BxmBgv0VeOe3S-11">
          <mxGeometry relative="1" as="geometry">
            <mxPoint x="-690" y="90" as="sourcePoint" />
            <mxPoint x="-609" y="90" as="targetPoint" />
          </mxGeometry>
        </mxCell>
        <mxCell id="plf-JN8BxmBgv0VeOe3S-11" value="i1" style="rounded=0;whiteSpace=wrap;html=1;fontSize=10;fontFamily=Courier New;fillColor=#e1d5e7;strokeColor=#9673a6;" vertex="1" parent="1">
          <mxGeometry x="-650" y="80" width="20" height="20" as="geometry" />
        </mxCell>
        <mxCell id="Tgw2gjz8aPCaeLwTC1Ko-1" value="" style="shape=flexArrow;endArrow=classic;html=1;rounded=0;endWidth=134.28571428571428;endSize=4.331428571428572;width=116;strokeWidth=1;strokeColor=#999999;" edge="1" parent="1">
          <mxGeometry width="50" height="50" relative="1" as="geometry">
            <mxPoint x="-670" y="130" as="sourcePoint" />
            <mxPoint x="-670" y="160" as="targetPoint" />
          </mxGeometry>
        </mxCell>
        <mxCell id="Tgw2gjz8aPCaeLwTC1Ko-2" value="/n1/n2/^o1" style="rounded=0;whiteSpace=wrap;html=1;fontSize=10;fontFamily=Courier New;fillColor=#e1d5e7;strokeColor=#9673a6;labelPosition=center;verticalLabelPosition=bottom;align=center;verticalAlign=top;" vertex="1" parent="1">
          <mxGeometry x="-820" y="190" width="20" height="20" as="geometry" />
        </mxCell>
        <mxCell id="Tgw2gjz8aPCaeLwTC1Ko-3" value="n3/n4/^i1" style="rounded=0;whiteSpace=wrap;html=1;fontSize=10;fontFamily=Courier New;fillColor=#e1d5e7;strokeColor=#9673a6;labelPosition=center;verticalLabelPosition=bottom;align=center;verticalAlign=top;" vertex="1" parent="1">
          <mxGeometry x="-540" y="190" width="20" height="20" as="geometry" />
        </mxCell>
        <mxCell id="Tgw2gjz8aPCaeLwTC1Ko-4" style="edgeStyle=orthogonalEdgeStyle;rounded=0;orthogonalLoop=1;jettySize=auto;html=1;exitX=1;exitY=0.5;exitDx=0;exitDy=0;fillColor=#f8cecc;strokeColor=#000000;" edge="1" parent="1" source="Tgw2gjz8aPCaeLwTC1Ko-8" target="Tgw2gjz8aPCaeLwTC1Ko-3">
          <mxGeometry relative="1" as="geometry" />
        </mxCell>
        <mxCell id="Tgw2gjz8aPCaeLwTC1Ko-5" value="" style="edgeStyle=orthogonalEdgeStyle;rounded=0;orthogonalLoop=1;jettySize=auto;html=1;exitX=1;exitY=0.5;exitDx=0;exitDy=0;fillColor=#f8cecc;strokeColor=#000000;" edge="1" parent="1" source="Tgw2gjz8aPCaeLwTC1Ko-2" target="Tgw2gjz8aPCaeLwTC1Ko-6">
          <mxGeometry relative="1" as="geometry">
            <mxPoint x="-729.75" y="200" as="sourcePoint" />
            <mxPoint x="-607.75" y="200" as="targetPoint" />
          </mxGeometry>
        </mxCell>
        <mxCell id="Tgw2gjz8aPCaeLwTC1Ko-6" value="n1/^o1" style="rounded=0;whiteSpace=wrap;html=1;fontSize=10;fontFamily=Courier New;fillColor=#e1d5e7;strokeColor=#9673a6;labelPosition=center;verticalLabelPosition=bottom;align=center;verticalAlign=top;" vertex="1" parent="1">
          <mxGeometry x="-730" y="190" width="20" height="20" as="geometry" />
        </mxCell>
        <mxCell id="Tgw2gjz8aPCaeLwTC1Ko-7" value="" style="edgeStyle=orthogonalEdgeStyle;rounded=0;orthogonalLoop=1;jettySize=auto;html=1;exitX=1;exitY=0.5;exitDx=0;exitDy=0;fillColor=#f8cecc;strokeColor=#000000;" edge="1" parent="1" source="Tgw2gjz8aPCaeLwTC1Ko-6" target="Tgw2gjz8aPCaeLwTC1Ko-8">
          <mxGeometry relative="1" as="geometry">
            <mxPoint x="-688.75" y="200" as="sourcePoint" />
            <mxPoint x="-607.75" y="200" as="targetPoint" />
          </mxGeometry>
        </mxCell>
        <mxCell id="Tgw2gjz8aPCaeLwTC1Ko-8" value="n3/^i1" style="rounded=0;whiteSpace=wrap;html=1;fontSize=10;fontFamily=Courier New;fillColor=#e1d5e7;strokeColor=#9673a6;labelPosition=center;verticalLabelPosition=bottom;align=center;verticalAlign=top;" vertex="1" parent="1">
          <mxGeometry x="-630" y="190" width="20" height="20" as="geometry" />
        </mxCell>
      </root>
    </mxGraphModel>
  </diagram>
  <diagram id="h01kasY5v7cOZD9fVotC" name="node_edges">
    <mxGraphModel dx="830" dy="426" grid="1" gridSize="10" guides="1" tooltips="1" connect="1" arrows="1" fold="1" page="1" pageScale="1" pageWidth="850" pageHeight="1100" math="0" shadow="0">
      <root>
        <mxCell id="0" />
        <mxCell id="1" parent="0" />
        <mxCell id="oYOkxVd3Vl2Fl6PGlsu9-22" style="edgeStyle=orthogonalEdgeStyle;rounded=0;orthogonalLoop=1;jettySize=auto;html=1;exitX=1;exitY=0.5;exitDx=0;exitDy=0;" edge="1" parent="1" source="oYOkxVd3Vl2Fl6PGlsu9-20">
          <mxGeometry relative="1" as="geometry">
            <mxPoint x="420" y="145" as="targetPoint" />
          </mxGeometry>
        </mxCell>
        <mxCell id="oYOkxVd3Vl2Fl6PGlsu9-1" value="" style="swimlane;whiteSpace=wrap;html=1;fillColor=#ffe6cc;strokeColor=#d79b00;" vertex="1" parent="1">
          <mxGeometry x="80" y="10" width="290" height="180" as="geometry" />
        </mxCell>
        <mxCell id="oYOkxVd3Vl2Fl6PGlsu9-9" value="" style="group" vertex="1" connectable="0" parent="oYOkxVd3Vl2Fl6PGlsu9-1">
          <mxGeometry x="150" y="100" width="70" height="70" as="geometry" />
        </mxCell>
        <mxCell id="oYOkxVd3Vl2Fl6PGlsu9-3" value="" style="rounded=1;whiteSpace=wrap;html=1;fillColor=#dae8fc;strokeColor=#6c8ebf;" vertex="1" parent="oYOkxVd3Vl2Fl6PGlsu9-9">
          <mxGeometry width="70" height="70" as="geometry" />
        </mxCell>
        <mxCell id="oYOkxVd3Vl2Fl6PGlsu9-6" value="" style="rounded=0;whiteSpace=wrap;html=1;fillColor=#e1d5e7;strokeColor=#9673a6;" vertex="1" parent="oYOkxVd3Vl2Fl6PGlsu9-9">
          <mxGeometry y="10" width="20" height="20" as="geometry" />
        </mxCell>
        <mxCell id="oYOkxVd3Vl2Fl6PGlsu9-7" value="" style="rounded=0;whiteSpace=wrap;html=1;fillColor=#e1d5e7;strokeColor=#9673a6;" vertex="1" parent="oYOkxVd3Vl2Fl6PGlsu9-9">
          <mxGeometry y="40" width="20" height="20" as="geometry" />
        </mxCell>
        <mxCell id="oYOkxVd3Vl2Fl6PGlsu9-8" value="" style="rounded=0;whiteSpace=wrap;html=1;fillColor=#e1d5e7;strokeColor=#9673a6;" vertex="1" parent="oYOkxVd3Vl2Fl6PGlsu9-9">
          <mxGeometry x="50" y="25" width="20" height="20" as="geometry" />
        </mxCell>
        <mxCell id="oYOkxVd3Vl2Fl6PGlsu9-10" value="" style="group" vertex="1" connectable="0" parent="oYOkxVd3Vl2Fl6PGlsu9-1">
          <mxGeometry x="70" y="40" width="70" height="70" as="geometry" />
        </mxCell>
        <mxCell id="oYOkxVd3Vl2Fl6PGlsu9-2" value="" style="rounded=1;whiteSpace=wrap;html=1;fillColor=#dae8fc;strokeColor=#6c8ebf;" vertex="1" parent="oYOkxVd3Vl2Fl6PGlsu9-10">
          <mxGeometry width="70" height="70" as="geometry" />
        </mxCell>
        <mxCell id="oYOkxVd3Vl2Fl6PGlsu9-4" value="" style="rounded=0;whiteSpace=wrap;html=1;fillColor=#e1d5e7;strokeColor=#9673a6;" vertex="1" parent="oYOkxVd3Vl2Fl6PGlsu9-10">
          <mxGeometry y="25" width="20" height="20" as="geometry" />
        </mxCell>
        <mxCell id="oYOkxVd3Vl2Fl6PGlsu9-5" value="" style="rounded=0;whiteSpace=wrap;html=1;fillColor=#e1d5e7;strokeColor=#9673a6;" vertex="1" parent="oYOkxVd3Vl2Fl6PGlsu9-10">
          <mxGeometry x="50" y="25" width="20" height="20" as="geometry" />
        </mxCell>
        <mxCell id="oYOkxVd3Vl2Fl6PGlsu9-13" style="edgeStyle=orthogonalEdgeStyle;rounded=0;orthogonalLoop=1;jettySize=auto;html=1;exitX=1;exitY=0.5;exitDx=0;exitDy=0;entryX=0;entryY=0.5;entryDx=0;entryDy=0;" edge="1" parent="oYOkxVd3Vl2Fl6PGlsu9-1" source="oYOkxVd3Vl2Fl6PGlsu9-11" target="oYOkxVd3Vl2Fl6PGlsu9-6">
          <mxGeometry relative="1" as="geometry" />
        </mxCell>
        <mxCell id="oYOkxVd3Vl2Fl6PGlsu9-18" style="rounded=0;orthogonalLoop=1;jettySize=auto;html=1;exitX=1;exitY=0.5;exitDx=0;exitDy=0;entryX=0;entryY=0.5;entryDx=0;entryDy=0;" edge="1" parent="oYOkxVd3Vl2Fl6PGlsu9-1" source="oYOkxVd3Vl2Fl6PGlsu9-11" target="oYOkxVd3Vl2Fl6PGlsu9-4">
          <mxGeometry relative="1" as="geometry" />
        </mxCell>
        <mxCell id="oYOkxVd3Vl2Fl6PGlsu9-11" value="" style="rounded=0;whiteSpace=wrap;html=1;fillColor=#e1d5e7;strokeColor=#9673a6;" vertex="1" parent="oYOkxVd3Vl2Fl6PGlsu9-1">
          <mxGeometry y="110" width="20" height="20" as="geometry" />
        </mxCell>
        <mxCell id="oYOkxVd3Vl2Fl6PGlsu9-14" style="edgeStyle=orthogonalEdgeStyle;rounded=0;orthogonalLoop=1;jettySize=auto;html=1;exitX=1;exitY=0.5;exitDx=0;exitDy=0;entryX=0;entryY=0.5;entryDx=0;entryDy=0;" edge="1" parent="oYOkxVd3Vl2Fl6PGlsu9-1" source="oYOkxVd3Vl2Fl6PGlsu9-12" target="oYOkxVd3Vl2Fl6PGlsu9-7">
          <mxGeometry relative="1" as="geometry" />
        </mxCell>
        <mxCell id="oYOkxVd3Vl2Fl6PGlsu9-12" value="" style="rounded=0;whiteSpace=wrap;html=1;fillColor=#e1d5e7;strokeColor=#9673a6;" vertex="1" parent="oYOkxVd3Vl2Fl6PGlsu9-1">
          <mxGeometry y="140" width="20" height="20" as="geometry" />
        </mxCell>
        <mxCell id="oYOkxVd3Vl2Fl6PGlsu9-21" style="edgeStyle=orthogonalEdgeStyle;rounded=0;orthogonalLoop=1;jettySize=auto;html=1;exitX=1;exitY=0.5;exitDx=0;exitDy=0;" edge="1" parent="oYOkxVd3Vl2Fl6PGlsu9-1" source="oYOkxVd3Vl2Fl6PGlsu9-19">
          <mxGeometry relative="1" as="geometry">
            <mxPoint x="340" y="75" as="targetPoint" />
          </mxGeometry>
        </mxCell>
        <mxCell id="oYOkxVd3Vl2Fl6PGlsu9-19" value="" style="rounded=0;whiteSpace=wrap;html=1;fillColor=#e1d5e7;strokeColor=#9673a6;" vertex="1" parent="oYOkxVd3Vl2Fl6PGlsu9-1">
          <mxGeometry x="270" y="65" width="20" height="20" as="geometry" />
        </mxCell>
        <mxCell id="oYOkxVd3Vl2Fl6PGlsu9-20" value="" style="rounded=0;whiteSpace=wrap;html=1;fillColor=#e1d5e7;strokeColor=#9673a6;" vertex="1" parent="oYOkxVd3Vl2Fl6PGlsu9-1">
          <mxGeometry x="270" y="125" width="20" height="20" as="geometry" />
        </mxCell>
        <mxCell id="oYOkxVd3Vl2Fl6PGlsu9-23" style="edgeStyle=orthogonalEdgeStyle;rounded=0;orthogonalLoop=1;jettySize=auto;html=1;exitX=1;exitY=0.5;exitDx=0;exitDy=0;entryX=0;entryY=0.5;entryDx=0;entryDy=0;" edge="1" parent="oYOkxVd3Vl2Fl6PGlsu9-1" source="oYOkxVd3Vl2Fl6PGlsu9-8" target="oYOkxVd3Vl2Fl6PGlsu9-20">
          <mxGeometry relative="1" as="geometry" />
        </mxCell>
        <mxCell id="oYOkxVd3Vl2Fl6PGlsu9-24" style="edgeStyle=orthogonalEdgeStyle;rounded=0;orthogonalLoop=1;jettySize=auto;html=1;exitX=1;exitY=0.5;exitDx=0;exitDy=0;entryX=0;entryY=0.5;entryDx=0;entryDy=0;" edge="1" parent="oYOkxVd3Vl2Fl6PGlsu9-1" source="oYOkxVd3Vl2Fl6PGlsu9-5" target="oYOkxVd3Vl2Fl6PGlsu9-19">
          <mxGeometry relative="1" as="geometry" />
        </mxCell>
        <mxCell id="oYOkxVd3Vl2Fl6PGlsu9-25" value="&lt;font color=&quot;#994c00&quot; style=&quot;font-size: 9px;&quot; face=&quot;Courier New&quot;&gt;&quot;in+inside&quot;&lt;/font&gt;" style="ellipse;whiteSpace=wrap;html=1;fillColor=none;dashed=1;dashPattern=8 8;strokeColor=#b85450;" vertex="1" parent="oYOkxVd3Vl2Fl6PGlsu9-1">
          <mxGeometry x="20" y="80" width="70" height="95" as="geometry" />
        </mxCell>
        <mxCell id="oYOkxVd3Vl2Fl6PGlsu9-26" value="&lt;font color=&quot;#994c00&quot; style=&quot;font-size: 9px;&quot; face=&quot;Courier New&quot;&gt;&quot;out+inside&quot;&lt;/font&gt;" style="ellipse;whiteSpace=wrap;html=1;fillColor=none;dashed=1;dashPattern=8 8;strokeColor=#b85450;" vertex="1" parent="oYOkxVd3Vl2Fl6PGlsu9-1">
          <mxGeometry x="210" y="60" width="70" height="95" as="geometry" />
        </mxCell>
        <mxCell id="oYOkxVd3Vl2Fl6PGlsu9-15" style="edgeStyle=orthogonalEdgeStyle;rounded=0;orthogonalLoop=1;jettySize=auto;html=1;entryX=0;entryY=0.5;entryDx=0;entryDy=0;" edge="1" parent="1">
          <mxGeometry relative="1" as="geometry">
            <mxPoint x="30" y="130" as="sourcePoint" />
            <mxPoint x="80" y="130" as="targetPoint" />
          </mxGeometry>
        </mxCell>
        <mxCell id="oYOkxVd3Vl2Fl6PGlsu9-17" style="edgeStyle=orthogonalEdgeStyle;rounded=0;orthogonalLoop=1;jettySize=auto;html=1;entryX=0;entryY=0.5;entryDx=0;entryDy=0;" edge="1" parent="1">
          <mxGeometry relative="1" as="geometry">
            <mxPoint x="30" y="160" as="sourcePoint" />
            <mxPoint x="80" y="160" as="targetPoint" />
          </mxGeometry>
        </mxCell>
        <mxCell id="oYOkxVd3Vl2Fl6PGlsu9-28" value="&lt;font color=&quot;#994c00&quot; style=&quot;font-size: 9px;&quot; face=&quot;Courier New&quot;&gt;&quot;out+outside&quot;&lt;/font&gt;" style="ellipse;whiteSpace=wrap;html=1;fillColor=none;dashed=1;dashPattern=8 8;strokeColor=#b85450;" vertex="1" parent="1">
          <mxGeometry x="370" y="70" width="70" height="95" as="geometry" />
        </mxCell>
        <mxCell id="oYOkxVd3Vl2Fl6PGlsu9-29" value="&lt;font color=&quot;#994c00&quot; style=&quot;font-size: 9px;&quot; face=&quot;Courier New&quot;&gt;&quot;in+outside&quot;&lt;/font&gt;" style="ellipse;whiteSpace=wrap;html=1;fillColor=none;dashed=1;dashPattern=8 8;strokeColor=#b85450;" vertex="1" parent="1">
          <mxGeometry x="10" y="95" width="70" height="95" as="geometry" />
        </mxCell>
      </root>
    </mxGraphModel>
  </diagram>
  <diagram id="Kg53EDT9BtXEidqgvEf-" name="node_projection">
    <mxGraphModel dx="378" dy="508" grid="1" gridSize="10" guides="1" tooltips="1" connect="1" arrows="1" fold="1" page="1" pageScale="1" pageWidth="850" pageHeight="1100" math="0" shadow="0">
      <root>
        <mxCell id="0" />
        <mxCell id="1" parent="0" />
        <mxCell id="AYlGDbJxdHYd0f8dWjC5-29" value="" style="rounded=0;whiteSpace=wrap;html=1;fillColor=none;dashed=1;dashPattern=8 8;strokeColor=#999999;" vertex="1" parent="1">
          <mxGeometry x="40" y="310" width="470" height="200" as="geometry" />
        </mxCell>
        <mxCell id="giMr81FyWGVq6ic2vkYe-1" value="parent" style="swimlane;whiteSpace=wrap;html=1;fillColor=#ffe6cc;strokeColor=#d79b00;" vertex="1" parent="1">
          <mxGeometry x="95" y="30" width="360" height="220" as="geometry" />
        </mxCell>
        <mxCell id="giMr81FyWGVq6ic2vkYe-16" value="" style="group" vertex="1" connectable="0" parent="giMr81FyWGVq6ic2vkYe-1">
          <mxGeometry x="100" y="140" width="70" height="60" as="geometry" />
        </mxCell>
        <mxCell id="giMr81FyWGVq6ic2vkYe-8" value="n2" style="rounded=1;whiteSpace=wrap;html=1;fillColor=#dae8fc;strokeColor=#6c8ebf;fontFamily=Courier New;" vertex="1" parent="giMr81FyWGVq6ic2vkYe-16">
          <mxGeometry width="70" height="60" as="geometry" />
        </mxCell>
        <mxCell id="giMr81FyWGVq6ic2vkYe-9" value="&lt;font style=&quot;font-size: 10px;&quot; face=&quot;Courier New&quot;&gt;p1&lt;/font&gt;" style="rounded=0;whiteSpace=wrap;html=1;fillColor=#e1d5e7;strokeColor=#9673a6;" vertex="1" parent="giMr81FyWGVq6ic2vkYe-16">
          <mxGeometry y="20" width="20" height="20" as="geometry" />
        </mxCell>
        <mxCell id="giMr81FyWGVq6ic2vkYe-10" value="&lt;font face=&quot;Courier New&quot; style=&quot;font-size: 10px;&quot;&gt;p3&lt;/font&gt;" style="rounded=0;whiteSpace=wrap;html=1;fillColor=#e1d5e7;strokeColor=#9673a6;" vertex="1" parent="giMr81FyWGVq6ic2vkYe-16">
          <mxGeometry x="50" y="30" width="20" height="20" as="geometry" />
        </mxCell>
        <mxCell id="giMr81FyWGVq6ic2vkYe-14" value="&lt;font face=&quot;Courier New&quot; style=&quot;font-size: 10px;&quot;&gt;p2&lt;/font&gt;" style="rounded=0;whiteSpace=wrap;html=1;fillColor=#e1d5e7;strokeColor=#9673a6;" vertex="1" parent="giMr81FyWGVq6ic2vkYe-16">
          <mxGeometry x="50" y="10" width="20" height="20" as="geometry" />
        </mxCell>
        <mxCell id="giMr81FyWGVq6ic2vkYe-15" value="" style="group" vertex="1" connectable="0" parent="giMr81FyWGVq6ic2vkYe-1">
          <mxGeometry x="65" y="40" width="70" height="60" as="geometry" />
        </mxCell>
        <mxCell id="giMr81FyWGVq6ic2vkYe-2" value="n1" style="rounded=1;whiteSpace=wrap;html=1;fillColor=#dae8fc;strokeColor=#6c8ebf;fontFamily=Courier New;" vertex="1" parent="giMr81FyWGVq6ic2vkYe-15">
          <mxGeometry width="70" height="60" as="geometry" />
        </mxCell>
        <mxCell id="giMr81FyWGVq6ic2vkYe-3" value="&lt;font style=&quot;font-size: 10px;&quot; face=&quot;Courier New&quot;&gt;p1&lt;/font&gt;" style="rounded=0;whiteSpace=wrap;html=1;fillColor=#e1d5e7;strokeColor=#9673a6;" vertex="1" parent="giMr81FyWGVq6ic2vkYe-15">
          <mxGeometry y="20" width="20" height="20" as="geometry" />
        </mxCell>
        <mxCell id="giMr81FyWGVq6ic2vkYe-4" value="&lt;font face=&quot;Courier New&quot; style=&quot;font-size: 10px;&quot;&gt;p2&lt;/font&gt;" style="rounded=0;whiteSpace=wrap;html=1;fillColor=#e1d5e7;strokeColor=#9673a6;" vertex="1" parent="giMr81FyWGVq6ic2vkYe-15">
          <mxGeometry x="50" y="20" width="20" height="20" as="geometry" />
        </mxCell>
        <mxCell id="giMr81FyWGVq6ic2vkYe-21" style="edgeStyle=orthogonalEdgeStyle;rounded=0;orthogonalLoop=1;jettySize=auto;html=1;exitX=1;exitY=0.5;exitDx=0;exitDy=0;entryX=0;entryY=0.5;entryDx=0;entryDy=0;" edge="1" parent="giMr81FyWGVq6ic2vkYe-1" source="giMr81FyWGVq6ic2vkYe-18" target="giMr81FyWGVq6ic2vkYe-3">
          <mxGeometry relative="1" as="geometry" />
        </mxCell>
        <mxCell id="giMr81FyWGVq6ic2vkYe-18" value="&lt;font style=&quot;font-size: 10px;&quot; face=&quot;Courier New&quot;&gt;p1&lt;/font&gt;" style="rounded=0;whiteSpace=wrap;html=1;fillColor=#e1d5e7;strokeColor=#9673a6;" vertex="1" parent="giMr81FyWGVq6ic2vkYe-1">
          <mxGeometry y="60" width="20" height="20" as="geometry" />
        </mxCell>
        <mxCell id="giMr81FyWGVq6ic2vkYe-25" style="edgeStyle=orthogonalEdgeStyle;rounded=0;orthogonalLoop=1;jettySize=auto;html=1;exitX=1;exitY=0.5;exitDx=0;exitDy=0;entryX=0;entryY=0.5;entryDx=0;entryDy=0;" edge="1" parent="giMr81FyWGVq6ic2vkYe-1" source="giMr81FyWGVq6ic2vkYe-19" target="giMr81FyWGVq6ic2vkYe-9">
          <mxGeometry relative="1" as="geometry" />
        </mxCell>
        <mxCell id="giMr81FyWGVq6ic2vkYe-19" value="&lt;font style=&quot;font-size: 10px;&quot; face=&quot;Courier New&quot;&gt;p2&lt;/font&gt;" style="rounded=0;whiteSpace=wrap;html=1;fillColor=#e1d5e7;strokeColor=#9673a6;" vertex="1" parent="giMr81FyWGVq6ic2vkYe-1">
          <mxGeometry y="160" width="20" height="20" as="geometry" />
        </mxCell>
        <mxCell id="giMr81FyWGVq6ic2vkYe-17" value="" style="group" vertex="1" connectable="0" parent="giMr81FyWGVq6ic2vkYe-1">
          <mxGeometry x="230" y="80" width="70" height="80" as="geometry" />
        </mxCell>
        <mxCell id="giMr81FyWGVq6ic2vkYe-5" value="n3" style="rounded=1;whiteSpace=wrap;html=1;fillColor=#dae8fc;strokeColor=#6c8ebf;fontFamily=Courier New;" vertex="1" parent="giMr81FyWGVq6ic2vkYe-17">
          <mxGeometry width="70" height="80" as="geometry" />
        </mxCell>
        <mxCell id="giMr81FyWGVq6ic2vkYe-6" value="&lt;font style=&quot;font-size: 10px;&quot; face=&quot;Courier New&quot;&gt;p2&lt;/font&gt;" style="rounded=0;whiteSpace=wrap;html=1;fillColor=#e1d5e7;strokeColor=#9673a6;" vertex="1" parent="giMr81FyWGVq6ic2vkYe-17">
          <mxGeometry y="30" width="20" height="20" as="geometry" />
        </mxCell>
        <mxCell id="giMr81FyWGVq6ic2vkYe-7" value="&lt;font face=&quot;Courier New&quot; style=&quot;font-size: 10px;&quot;&gt;p4&lt;/font&gt;" style="rounded=0;whiteSpace=wrap;html=1;fillColor=#e1d5e7;strokeColor=#9673a6;" vertex="1" parent="giMr81FyWGVq6ic2vkYe-17">
          <mxGeometry x="50" y="30" width="20" height="20" as="geometry" />
        </mxCell>
        <mxCell id="giMr81FyWGVq6ic2vkYe-12" value="&lt;font style=&quot;font-size: 10px;&quot; face=&quot;Courier New&quot;&gt;p1&lt;/font&gt;" style="rounded=0;whiteSpace=wrap;html=1;fillColor=#e1d5e7;strokeColor=#9673a6;" vertex="1" parent="giMr81FyWGVq6ic2vkYe-17">
          <mxGeometry y="10" width="20" height="20" as="geometry" />
        </mxCell>
        <mxCell id="giMr81FyWGVq6ic2vkYe-13" value="&lt;font style=&quot;font-size: 10px;&quot; face=&quot;Courier New&quot;&gt;p3&lt;/font&gt;" style="rounded=0;whiteSpace=wrap;html=1;fillColor=#e1d5e7;strokeColor=#9673a6;" vertex="1" parent="giMr81FyWGVq6ic2vkYe-17">
          <mxGeometry y="50" width="20" height="20" as="geometry" />
        </mxCell>
        <mxCell id="giMr81FyWGVq6ic2vkYe-20" value="&lt;font style=&quot;font-size: 10px;&quot; face=&quot;Courier New&quot;&gt;p3&lt;/font&gt;" style="rounded=0;whiteSpace=wrap;html=1;fillColor=#e1d5e7;strokeColor=#9673a6;" vertex="1" parent="giMr81FyWGVq6ic2vkYe-1">
          <mxGeometry x="340" y="110" width="20" height="20" as="geometry" />
        </mxCell>
        <mxCell id="giMr81FyWGVq6ic2vkYe-22" style="rounded=0;orthogonalLoop=1;jettySize=auto;html=1;exitX=1;exitY=0.5;exitDx=0;exitDy=0;entryX=-0.1;entryY=0.583;entryDx=0;entryDy=0;entryPerimeter=0;" edge="1" parent="giMr81FyWGVq6ic2vkYe-1" source="giMr81FyWGVq6ic2vkYe-4" target="giMr81FyWGVq6ic2vkYe-12">
          <mxGeometry relative="1" as="geometry" />
        </mxCell>
        <mxCell id="giMr81FyWGVq6ic2vkYe-23" style="rounded=0;orthogonalLoop=1;jettySize=auto;html=1;exitX=1;exitY=0.5;exitDx=0;exitDy=0;entryX=0;entryY=0.5;entryDx=0;entryDy=0;" edge="1" parent="giMr81FyWGVq6ic2vkYe-1" source="giMr81FyWGVq6ic2vkYe-14" target="giMr81FyWGVq6ic2vkYe-6">
          <mxGeometry relative="1" as="geometry" />
        </mxCell>
        <mxCell id="giMr81FyWGVq6ic2vkYe-24" style="rounded=0;orthogonalLoop=1;jettySize=auto;html=1;exitX=1;exitY=0.5;exitDx=0;exitDy=0;entryX=0;entryY=0.5;entryDx=0;entryDy=0;" edge="1" parent="giMr81FyWGVq6ic2vkYe-1" source="giMr81FyWGVq6ic2vkYe-10" target="giMr81FyWGVq6ic2vkYe-13">
          <mxGeometry relative="1" as="geometry" />
        </mxCell>
        <mxCell id="giMr81FyWGVq6ic2vkYe-26" style="edgeStyle=orthogonalEdgeStyle;rounded=0;orthogonalLoop=1;jettySize=auto;html=1;exitX=1;exitY=0.5;exitDx=0;exitDy=0;entryX=0;entryY=0.5;entryDx=0;entryDy=0;" edge="1" parent="giMr81FyWGVq6ic2vkYe-1" source="giMr81FyWGVq6ic2vkYe-7" target="giMr81FyWGVq6ic2vkYe-20">
          <mxGeometry relative="1" as="geometry" />
        </mxCell>
        <mxCell id="AYlGDbJxdHYd0f8dWjC5-1" value="" style="shape=flexArrow;endArrow=classic;html=1;rounded=0;endWidth=134.28571428571428;endSize=4.331428571428572;width=116;strokeWidth=1;strokeColor=#999999;" edge="1" parent="1">
          <mxGeometry width="50" height="50" relative="1" as="geometry">
            <mxPoint x="279.83" y="260" as="sourcePoint" />
            <mxPoint x="279.83" y="290" as="targetPoint" />
          </mxGeometry>
        </mxCell>
        <mxCell id="AYlGDbJxdHYd0f8dWjC5-9" style="edgeStyle=orthogonalEdgeStyle;rounded=0;orthogonalLoop=1;jettySize=auto;html=1;exitX=1;exitY=0.5;exitDx=0;exitDy=0;" edge="1" parent="1" source="AYlGDbJxdHYd0f8dWjC5-3" target="AYlGDbJxdHYd0f8dWjC5-5">
          <mxGeometry relative="1" as="geometry" />
        </mxCell>
        <mxCell id="AYlGDbJxdHYd0f8dWjC5-15" value="(None, n1/^p1)" style="edgeLabel;html=1;align=center;verticalAlign=middle;resizable=0;points=[];fontSize=8;fontFamily=Courier New;" vertex="1" connectable="0" parent="AYlGDbJxdHYd0f8dWjC5-9">
          <mxGeometry x="-0.2444" y="1" relative="1" as="geometry">
            <mxPoint x="6" y="-9" as="offset" />
          </mxGeometry>
        </mxCell>
        <mxCell id="AYlGDbJxdHYd0f8dWjC5-3" value="parent/^p1" style="ellipse;whiteSpace=wrap;html=1;aspect=fixed;fontSize=10;fontFamily=Courier New;" vertex="1" parent="1">
          <mxGeometry x="40" y="330" width="60" height="60" as="geometry" />
        </mxCell>
        <mxCell id="AYlGDbJxdHYd0f8dWjC5-10" style="edgeStyle=orthogonalEdgeStyle;rounded=0;orthogonalLoop=1;jettySize=auto;html=1;exitX=1;exitY=0.5;exitDx=0;exitDy=0;entryX=0;entryY=0.5;entryDx=0;entryDy=0;" edge="1" parent="1" source="AYlGDbJxdHYd0f8dWjC5-4" target="AYlGDbJxdHYd0f8dWjC5-6">
          <mxGeometry relative="1" as="geometry" />
        </mxCell>
        <mxCell id="AYlGDbJxdHYd0f8dWjC5-4" value="parent/^p2" style="ellipse;whiteSpace=wrap;html=1;aspect=fixed;fontSize=10;fontFamily=Courier New;" vertex="1" parent="1">
          <mxGeometry x="40" y="420" width="60" height="60" as="geometry" />
        </mxCell>
        <mxCell id="AYlGDbJxdHYd0f8dWjC5-11" style="rounded=0;orthogonalLoop=1;jettySize=auto;html=1;exitX=1;exitY=0.5;exitDx=0;exitDy=0;entryX=0.1;entryY=0.239;entryDx=0;entryDy=0;entryPerimeter=0;" edge="1" parent="1" source="AYlGDbJxdHYd0f8dWjC5-5" target="AYlGDbJxdHYd0f8dWjC5-7">
          <mxGeometry relative="1" as="geometry" />
        </mxCell>
        <mxCell id="AYlGDbJxdHYd0f8dWjC5-5" value="n1" style="ellipse;whiteSpace=wrap;html=1;aspect=fixed;fontSize=10;fontFamily=Courier New;" vertex="1" parent="1">
          <mxGeometry x="190" y="330" width="60" height="60" as="geometry" />
        </mxCell>
        <mxCell id="AYlGDbJxdHYd0f8dWjC5-12" style="rounded=0;orthogonalLoop=1;jettySize=auto;html=1;" edge="1" parent="1" source="AYlGDbJxdHYd0f8dWjC5-6" target="AYlGDbJxdHYd0f8dWjC5-7">
          <mxGeometry relative="1" as="geometry" />
        </mxCell>
        <mxCell id="AYlGDbJxdHYd0f8dWjC5-6" value="n2" style="ellipse;whiteSpace=wrap;html=1;aspect=fixed;fontSize=10;fontFamily=Courier New;" vertex="1" parent="1">
          <mxGeometry x="190" y="420" width="60" height="60" as="geometry" />
        </mxCell>
        <mxCell id="AYlGDbJxdHYd0f8dWjC5-14" style="edgeStyle=orthogonalEdgeStyle;rounded=0;orthogonalLoop=1;jettySize=auto;html=1;exitX=1;exitY=0.5;exitDx=0;exitDy=0;entryX=0;entryY=0.5;entryDx=0;entryDy=0;" edge="1" parent="1" source="AYlGDbJxdHYd0f8dWjC5-7" target="AYlGDbJxdHYd0f8dWjC5-8">
          <mxGeometry relative="1" as="geometry" />
        </mxCell>
        <mxCell id="AYlGDbJxdHYd0f8dWjC5-7" value="n3" style="ellipse;whiteSpace=wrap;html=1;aspect=fixed;fontSize=10;fontFamily=Courier New;" vertex="1" parent="1">
          <mxGeometry x="310" y="370" width="60" height="60" as="geometry" />
        </mxCell>
        <mxCell id="AYlGDbJxdHYd0f8dWjC5-8" value="parent/^p3" style="ellipse;whiteSpace=wrap;html=1;aspect=fixed;fontSize=10;fontFamily=Courier New;" vertex="1" parent="1">
          <mxGeometry x="450" y="370" width="60" height="60" as="geometry" />
        </mxCell>
        <mxCell id="AYlGDbJxdHYd0f8dWjC5-13" style="rounded=0;orthogonalLoop=1;jettySize=auto;html=1;exitX=0.967;exitY=0.656;exitDx=0;exitDy=0;exitPerimeter=0;entryX=0.244;entryY=0.933;entryDx=0;entryDy=0;entryPerimeter=0;" edge="1" parent="1" source="AYlGDbJxdHYd0f8dWjC5-6" target="AYlGDbJxdHYd0f8dWjC5-7">
          <mxGeometry relative="1" as="geometry">
            <mxPoint x="258" y="448" as="sourcePoint" />
            <mxPoint x="322" y="422" as="targetPoint" />
          </mxGeometry>
        </mxCell>
        <mxCell id="AYlGDbJxdHYd0f8dWjC5-17" value="(None, n2/^p1)" style="edgeLabel;html=1;align=center;verticalAlign=middle;resizable=0;points=[];fontSize=8;fontFamily=Courier New;" vertex="1" connectable="0" parent="1">
          <mxGeometry x="140" y="440" as="geometry" />
        </mxCell>
        <mxCell id="AYlGDbJxdHYd0f8dWjC5-21" value="(n1/^p2, n3/^p1)" style="edgeLabel;html=1;align=center;verticalAlign=middle;resizable=0;points=[];fontSize=8;fontFamily=Courier New;" vertex="1" connectable="0" parent="1">
          <mxGeometry x="290" y="360" as="geometry" />
        </mxCell>
        <mxCell id="AYlGDbJxdHYd0f8dWjC5-22" value="(n2/^p2, n3/^p2)" style="edgeLabel;html=1;align=center;verticalAlign=middle;resizable=0;points=[];fontSize=8;fontFamily=Courier New;" vertex="1" connectable="0" parent="1">
          <mxGeometry x="270" y="420" as="geometry" />
        </mxCell>
        <mxCell id="AYlGDbJxdHYd0f8dWjC5-23" value="(n2/^p3, n3/^p3)" style="edgeLabel;html=1;align=center;verticalAlign=middle;resizable=0;points=[];fontSize=8;fontFamily=Courier New;" vertex="1" connectable="0" parent="1">
          <mxGeometry x="290" y="450" as="geometry" />
        </mxCell>
        <mxCell id="AYlGDbJxdHYd0f8dWjC5-24" value="(n3/^p4, None)" style="edgeLabel;html=1;align=center;verticalAlign=middle;resizable=0;points=[];fontSize=8;fontFamily=Courier New;" vertex="1" connectable="0" parent="1">
          <mxGeometry x="410" y="390" as="geometry" />
        </mxCell>
        <mxCell id="AYlGDbJxdHYd0f8dWjC5-25" value="" style="rounded=0;whiteSpace=wrap;html=1;fillColor=none;dashed=1;dashPattern=8 8;strokeColor=#999999;" vertex="1" parent="1">
          <mxGeometry x="190" y="320" width="180" height="170" as="geometry" />
        </mxCell>
        <mxCell id="AYlGDbJxdHYd0f8dWjC5-28" value="&lt;font style=&quot;font-size: 9px;&quot; face=&quot;Courier New&quot;&gt;no_parent_ports=True&lt;/font&gt;" style="edgeLabel;html=1;align=center;verticalAlign=middle;resizable=0;points=[];" vertex="1" connectable="0" parent="1">
          <mxGeometry x="309.99999999999994" y="480.00333333333333" as="geometry" />
        </mxCell>
        <mxCell id="AYlGDbJxdHYd0f8dWjC5-30" value="&lt;font style=&quot;font-size: 9px;&quot; face=&quot;Courier New&quot;&gt;no_parent_ports=False&lt;/font&gt;" style="edgeLabel;html=1;align=center;verticalAlign=middle;resizable=0;points=[];" vertex="1" connectable="0" parent="1">
          <mxGeometry x="309.99999999999994" y="500.00333333333333" as="geometry" />
        </mxCell>
      </root>
    </mxGraphModel>
  </diagram>
</mxfile>
